#!OML:ASF H:\Male1\Project 1\Capture day 1\Session 1\Male1.ASF
:FULLY-SPECIFIED
:DEGREES
946
root 0.38527 15.0446 -2.31069 155.898 256.138 199.1
lowerback 4.20869 0.712212 -5.76696
upperback 5.5147 0.742182 -2.01019
thorax 3.29893 0.136665 1.13571
lowerneck -3.3119 5.01196 10.9534
upperneck 3.0468 6.48574 -8.00296
head 2.0606 3.20031 -3.96822
rclavicle -5.2181e-015 2.06736e-014
rhumerus -33.1632 -14.3945 -83.9581
rradius 27.9693
rwrist -13.033
rhand -15.498 -0.753154
rfingers 7.12502
rthumb 10.6844 -30.4615
lclavicle -5.2181e-015 2.06736e-014
lhumerus -17.3663 -14.2355 94.4822
lradius 37.6241
lwrist 2.91411
lhand -19.1935 11.1692
lfingers 7.12502
lthumb 7.1184 41.0295
rfemur -19.8998 16.6447 18.5116
rtibia 29.1009
rfoot -33.4696 -31.0885
rtoes -10.3733
lfemur 14.5248 -5.93305 -35.2056
ltibia 19.096
lfoot -19.7701 14.6564
ltoes -2.88693
947
root 0.207069 15.0406 -2.28847 157.776 256.458 197.367
lowerback 4.36124 0.8442 -5.01163
upperback 5.23519 0.919365 -1.79234
thorax 2.9115 0.266935 0.93651
lowerneck -3.18532 4.96299 11.0004
upperneck 3.31644 6.44692 -8.13184
head 2.12221 3.18321 -4.01729
rclavicle 4.67144e-015 3.57812e-015
rhumerus -33.4096 -14.1044 -83.9447
rradius 27.9133
rwrist -13.084
rhand -15.6285 -0.85382
rfingers 7.12502
rthumb 10.5586 -30.5686
lclavicle 4.67144e-015 3.57812e-015
lhumerus -17.7151 -13.3287 94.587
lradius 36.8845
lwrist 1.91892
lhand -19.127 10.4406
lfingers 7.12502
lthumb 7.18254 40.2987
rfemur -19.4471 17.8937 19.1099
rtibia 28.9396
rfoot -34.482 -32.1654
rtoes -3.65243
lfemur 13.3876 -5.04893 -34.1887
ltibia 21.9955
lfoot -19.6791 13.6308
ltoes -2.1958
948
root 0.00167749 15.0354 -2.24173 160.707 256.415 194.537
lowerback 3.91131 0.844123 -3.81992
upperback 5.15704 0.97638 -1.5842
thorax 3.08709 0.335836 0.491453
lowerneck -3.18297 4.92259 11.1869
upperneck 3.62411 6.4117 -8.45607
head 2.22662 3.16284 -4.14514
rclavicle -4.08254e-014 -6.16232e-015
rhumerus -33.4451 -13.7954 -83.9011
rradius 27.7016
rwrist -13.3975
rhand -15.7599 -0.601378
rfingers 7.12502
rthumb 10.4318 -30.3226
lclavicle -4.08254e-014 -6.16232e-015
lhumerus -18.0127 -12.2844 94.6811
lradius 35.9709
lwrist 0.76318
lhand -19.0624 8.36948
lfingers 7.12502
lthumb 7.24491 38.2255
rfemur -18.7225 17.6303 19.767
rtibia 28.6859
rfoot -34.1795 -32.1974
rtoes 1.40732
lfemur 12.3001 -4.30992 -33.1258
ltibia 25.2913
lfoot -19.5237 12.5373
ltoes -4.08666
949
root -0.204146 15.0448 -2.19918 165.488 256.546 189.839
lowerback 3.53533 0.875645 -2.2509
upperback 5.02012 1.06158 -1.1812
thorax 3.16604 0.431669 0.0342947
lowerneck -3.27762 4.89056 11.2204
upperneck 3.98079 6.38429 -8.69324
head 2.35422 3.14375 -4.21921
rclavicle 3.05134e-014 -1.59028e-015
rhumerus -33.571 -13.768 -83.6229
rradius 27.5475
rwrist -13.5127
rhand -15.7663 -0.376447
rfingers 7.12502
rthumb 10.4256 -30.098
lclavicle 3.05134e-014 -1.59028e-015
lhumerus -18.2281 -10.9855 94.7633
lradius 34.5549
lwrist -0.522913
lhand -19.067 9.09361
lfingers 7.12502
lthumb 7.24045 38.9497
rfemur -17.935 16.7355 21.0809
rtibia 28.3472
rfoot -32.6952 -31.2549
rtoes 1.29674
lfemur 10.776 -3.36091 -31.4168
ltibia 29.1328
lfoot -18.8312 11.5217
ltoes -7.9797
950
root -0.408696 15.0636 -2.15684 170.216 256.826 185.29
lowerback 3.0934 0.952508 -0.813373
upperback 4.8454 1.19084 -0.720167
thorax 3.24705 0.542747 -0.289918
lowerneck -3.28209 4.85582 11.0995
upperneck 4.17185 6.35791 -8.81051
head 2.40899 3.12636 -4.23551
rclavicle -1.19395e-014 -6.55989e-015
rhumerus -33.6335 -13.9068 -83.1604
rradius 27.2409
rwrist -13.1947
rhand -15.6618 0.0743739
rfingers 7.12502
rthumb 10.5264 -29.642
lclavicle -1.19395e-014 -6.55989e-015
lhumerus -18.4163 -9.277 94.7578
lradius 32.7671
lwrist -1.86997
lhand -19.0928 9.46262
lfingers 7.12502
lthumb 7.2156 39.3196
rfemur -17.2056 15.5951 22.4827
rtibia 28.04
rfoot -30.6414 -30.3771
rtoes 0.756526
lfemur 8.77439 -2.08076 -29.617
ltibia 33.4316
lfoot -17.2627 10.7635
ltoes -12.901
951
root -0.596989 15.0819 -2.12653 173.782 256.689 182.085
lowerback 2.78118 0.937524 0.0417174
upperback 4.51782 1.18299 -0.342424
thorax 3.0915 0.566274 -0.377251
lowerneck -2.77194 4.71655 11.3827
upperneck 3.96349 6.22408 -9.28442
head 2.27398 3.06357 -4.44734
rclavicle -5.98218e-015 1.19271e-015
rhumerus -33.7058 -13.9495 -82.7442
rradius 26.826
rwrist -12.7307
rhand -15.4636 0.256053
rfingers 7.12502
rthumb 10.7176 -29.4506
lclavicle -5.98218e-015 1.19271e-015
lhumerus -18.8101 -7.26099 94.5678
lradius 30.9157
lwrist -3.22988
lhand -19.0441 10.3594
lfingers 7.12502
lthumb 7.26261 40.2148
rfemur -16.6203 14.732 23.437
rtibia 27.6867
rfoot -29.5135 -30.3238
rtoes -0.694106
lfemur 6.14188 -1.01604 -28.0827
ltibia 38.2633
lfoot -15.3547 9.72476
ltoes -16.2574
952
root -0.782002 15.0921 -2.1077 176.578 256.527 179.316
lowerback 2.89582 0.94633 0.643213
upperback 4.24071 1.19962 0.022512
thorax 2.74512 0.588975 -0.34352
lowerneck -1.81438 4.43979 12.0962
upperneck 3.31527 5.93585 -10.2038
head 1.94421 2.93212 -4.88713
rclavicle -4.20399e-015 -9.31803e-016
rhumerus -33.7353 -13.6347 -82.5011
rradius 26.3961
rwrist -12.6722
rhand -15.3851 0.130185
rfingers 7.12502
rthumb 10.7934 -29.5725
lclavicle -4.20399e-015 -9.31803e-016
lhumerus -19.245 -4.90199 94.1721
lradius 28.9953
lwrist -4.79799
lhand -18.9694 10.8675
lfingers 7.12502
lthumb 7.33466 40.7204
rfemur -15.6634 14.5452 24.4205
rtibia 27.3247
rfoot -29.7878 -30.4815
rtoes -0.624976
lfemur 3.58094 -0.0204691 -26.5881
ltibia 43.3752
lfoot -12.2708 8.26076
ltoes -18.3268
953
root -0.958881 15.0984 -2.09166 178.901 256.276 176.873
lowerback 3.25967 0.948246 1.1834
upperback 4.08051 1.20902 0.353445
thorax 2.38053 0.602435 -0.314263
lowerneck -1.8025 4.32142 11.9238
upperneck 3.25254 5.77597 -10.1047
head 1.89766 2.85221 -4.83586
rclavicle 3.78933e-015 3.67752e-015
rhumerus -33.6132 -13.0913 -82.4501
rradius 26.1999
rwrist -12.9994
rhand -15.4973 -0.210273
rfingers 7.12502
rthumb 10.6851 -29.9186
lclavicle 3.78933e-015 3.67752e-015
lhumerus -19.5235 -2.37231 93.5865
lradius 27.1389
lwrist -6.38557
lhand -18.7584 10.7767
lfingers 7.12502
lthumb 7.53831 40.6224
rfemur -14.5304 14.4058 25.3696
rtibia 26.8128
rfoot -30.2312 -30.4693
rtoes 0.374083
lfemur 0.979694 0.781046 -25.1704
ltibia 48.5701
lfoot -9.10997 6.46997
ltoes -17.7934
954
root -1.12668 15.105 -2.07318 180.921 256.034 174.646
lowerback 3.73468 1.00988 1.82342
upperback 4.0429 1.30519 0.586055
thorax 2.08794 0.660498 -0.444138
lowerneck -1.60387 4.08554 12.168
upperneck 2.74538 5.45602 -10.3393
head 1.69323 2.69521 -4.96912
rclavicle -2.95195e-014 -4.57205e-015
rhumerus -33.4482 -12.7253 -82.5147
rradius 26.3348
rwrist -13.2492
rhand -15.6088 -0.417685
rfingers 7.12502
rthumb 10.5775 -30.1315
lclavicle -2.95195e-014 -4.57205e-015
lhumerus -19.7248 0.00341559 92.822
lradius 25.4495
lwrist -7.91599
lhand -18.2013 10.8078
lfingers 7.12502
lthumb 8.07603 40.6335
rfemur -13.2487 13.7925 26.2739
rtibia 26.0837
rfoot -29.7909 -30.3036
rtoes 0.454592
lfemur -1.59016 1.482 -23.8478
ltibia 53.6076
lfoot -5.87316 4.98706
ltoes -15.3249
955
root -1.29055 15.122 -2.05227 183.647 255.911 171.649
lowerback 3.91501 1.05618 2.58835
upperback 4.32029 1.36551 0.916812
thorax 2.28827 0.70392 -0.53315
lowerneck -2.29048 4.09814 11.6241
upperneck 2.68579 5.39829 -9.90671
head 1.75499 2.65028 -4.73501
rclavicle 5.4144e-014 -1.69961e-014
rhumerus -32.7408 -12.2528 -82.6475
rradius 26.533
rwrist -13.3108
rhand -15.5326 -0.300658
rfingers 7.12502
rthumb 10.651 -30.0107
lclavicle 5.4144e-014 -1.69961e-014
lhumerus -19.5948 2.29544 92.0394
lradius 24.0348
lwrist -9.26626
lhand -17.6986 11.2679
lfingers 7.12502
lthumb 8.56121 41.0743
rfemur -11.8561 13.1051 27.3686
rtibia 25.1842
rfoot -29.0926 -30.2609
rtoes 0.237075
lfemur -4.09737 2.184 -22.363
ltibia 58.2894
lfoot -2.96522 4.0487
ltoes -12.521
